HIERARCHY
ROOT Hips
{
	OFFSET 0.000000 0.000000 0.000000
	CHANNELS 6 Xposition Yposition Zposition Zrotation Yrotation Xrotation 
	JOINT LHipJoint
	{
		OFFSET 0.000000 0.000000 0.000000
		CHANNELS 3 Zrotation Yrotation Xrotation
		JOINT LeftUpLeg
		{
			OFFSET 1.363060 -1.794630 0.839290
			CHANNELS 3 Zrotation Yrotation Xrotation
			JOINT LeftLeg
			{
				OFFSET 2.448110 -6.726130 0.000000
				CHANNELS 3 Zrotation Yrotation Xrotation
				JOINT LeftFoot
				{
					OFFSET 2.562200 -7.039590 0.000000
					CHANNELS 3 Zrotation Yrotation Xrotation
					JOINT LeftToeBase
					{
						OFFSET 0.157640 -0.433110 2.322550
						CHANNELS 3 Zrotation Yrotation Xrotation
						End Site
						{
							OFFSET 0.000000 0.000000 0.000000
						}
					}
				}
			}
		}
	}
	JOINT RHipJoint
	{
		OFFSET 0.000000 0.000000 0.000000
		CHANNELS 3 Zrotation Yrotation Xrotation
		JOINT RightUpLeg
		{
			OFFSET -1.305520 -1.794630 0.839290
			CHANNELS 3 Zrotation Yrotation Xrotation
			JOINT RightLeg
			{
				OFFSET -2.542530 -6.985550 0.000000
				CHANNELS 3 Zrotation Yrotation Xrotation
				JOINT RightFoot
				{
					OFFSET -2.568260 -7.056230 0.000000
					CHANNELS 3 Zrotation Yrotation Xrotation
					JOINT RightToeBase
					{
						OFFSET -0.164730 -0.452590 2.363150
						CHANNELS 3 Zrotation Yrotation Xrotation
						End Site
						{
							OFFSET 0.000000 0.000000 0.000000
						}
					}
				}
			}
		}
	}
}
MOTION
Frames: 19
Frame Time: 0.008333
-4.173242 17.566445 -0.792217 -119.889813 88.980149 -84.635596 -13.439614 2.240309 -2.916678 -5.805882 6.543794 -11.690289 -0.055111 1.542459 38.257467 2.456134 17.131892 4.136648 3.258099 0.000000 -32.230700 6.448977 -0.901704 3.789462 11.224223 9.006772 -61.915104 4.449073 -0.805429 14.439768 1.627856 6.159219 12.467857 1.315700 0.000000 -66.183399
-3.874085 17.499957 -0.770954 -108.170054 88.848350 -73.515674 -13.267803 2.294739 -3.202988 -5.647517 7.260531 -11.274567 0.066723 1.737353 41.540702 2.579573 17.907469 3.462945 3.219200 0.000000 -31.761001 6.611718 -1.025774 3.556068 12.638238 8.495291 -61.053625 4.541201 -0.890320 14.384955 1.600477 6.069072 12.943467 1.331801 0.000000 -65.678100
-3.571644 17.420532 -0.748949 -96.152565 88.594018 -62.075790 -13.059422 2.397594 -3.457116 -5.448323 7.936551 -10.947288 0.181584 1.963230 44.882725 2.703067 18.668804 2.842189 3.176200 -0.000000 -31.251400 6.821335 -1.092809 3.339882 13.865989 8.092996 -60.196680 4.561278 -1.005867 14.801432 1.510112 5.682802 12.920105 1.192900 -0.000000 -64.550700
-3.265473 17.327815 -0.725859 -85.004288 88.252678 -51.443919 -12.858826 2.556134 -3.666269 -5.242346 8.566333 -10.772617 0.288208 2.223068 48.287415 2.824663 19.415734 2.267895 3.129099 0.000000 -30.716000 7.044187 -1.106958 3.166181 14.842038 7.853745 -59.422799 4.512495 -1.143547 15.700154 1.363954 5.025723 12.331661 0.909700 0.000000 -62.717700
-2.956253 17.222543 -0.702175 -75.575793 87.876756 -42.476265 -12.707655 2.757099 -3.826753 -5.045289 9.131595 -10.736974 0.396802 2.509494 51.732948 2.942294 20.145158 1.737014 3.078601 -0.000000 -30.181501 7.240239 -1.086680 3.030352 15.558957 7.762399 -58.763638 4.402596 -1.303252 17.108286 1.171461 4.184959 11.122033 0.536400 0.000001 -60.320400
-2.644513 17.105691 -0.677883 -67.999439 87.516295 -35.297482 -12.620921 2.979125 -3.934713 -4.863944 9.622809 -10.859106 0.519960 2.808461 55.219432 3.053504 20.844960 1.247986 3.024700 0.000000 -29.688800 7.390085 -1.051972 2.941713 16.019584 7.817391 -58.284945 4.237009 -1.487752 19.055679 0.936441 3.243888 9.259709 0.139301 -0.000000 -57.363100
-2.331293 16.978938 -0.653261 -62.093675 87.205550 -29.734464 -12.595927 3.202193 -3.992889 -4.690179 10.037508 -11.133736 0.667426 3.107701 58.739266 3.156343 21.499354 0.796645 2.965900 0.000001 -29.245500 7.490664 -1.012451 2.894045 16.263328 7.991953 -58.016789 4.024145 -1.700704 21.554769 0.663197 2.295747 6.763289 -0.207000 0.000001 -53.951601
-2.017910 16.844582 -0.628495 -57.516889 86.962346 -25.462493 -12.620238 3.413572 -4.007690 -4.515158 10.378656 -11.544940 0.844026 3.399764 62.279651 3.249131 22.090661 0.379616 2.901000 -0.000000 -28.852300 7.552407 -0.966599 2.869498 16.347599 8.235646 -57.960039 3.775682 -1.944513 24.594607 0.360189 1.432354 3.696376 -0.438400 -0.000000 -50.152000
-1.705881 16.705361 -0.603533 -53.810268 86.782162 -22.039470 -12.680029 3.606547 -3.990644 -4.334223 10.662365 -12.077163 1.050541 3.682317 65.822879 3.332011 22.613234 0.010762 2.836900 0.000000 -28.605700 7.591722 -0.906054 2.851623 16.317470 8.512142 -58.087778 3.501836 -2.215411 28.123105 0.036874 0.706140 0.167715 -0.523400 0.000000 -45.982500
-1.396905 16.564621 -0.578806 -50.827309 86.652658 -19.339007 -12.766972 3.772984 -3.955950 -4.130285 10.903485 -12.709770 1.286481 3.955002 69.353764 3.402321 23.040792 -0.329921 2.765000 -0.000001 -28.381700 7.621479 -0.831910 2.821053 16.242067 8.766519 -58.324493 3.221652 -2.502596 31.994102 -0.290295 0.146008 -3.636857 -0.463400 -0.000000 -41.721600
-1.092483 16.426007 -0.554576 -48.449623 86.548574 -17.252724 -12.874080 3.905514 -3.919739 -3.888544 11.123210 -13.434395 1.550323 4.218916 72.854023 3.459363 23.362225 -0.642826 2.686400 -0.000001 -28.182499 7.652169 -0.749711 2.770604 16.171296 8.978753 -58.586764 2.950916 -2.791856 36.027191 -0.606551 -0.258284 -7.522027 -0.290200 -0.000001 -37.608900
-0.793894 16.293341 -0.531347 -46.744994 86.440723 -15.851929 -12.996581 3.995541 -3.896600 -3.590442 11.339214 -14.250761 1.840326 4.474942 76.304765 3.502414 23.567260 -0.934179 2.599700 0.000000 -27.973000 7.688338 -0.673493 2.699025 16.156988 9.141262 -58.786780 2.705018 -3.069490 40.016119 -0.897529 -0.529074 -11.289215 -0.048900 -0.000000 -33.982601
-0.502062 16.170318 -0.509712 -45.800692 86.298221 -15.221659 -13.130177 4.036648 -3.897212 -3.221758 11.564306 -15.165964 2.153933 4.724367 79.684711 3.531214 23.651041 -1.211910 2.503500 0.000000 -27.704000 7.730244 -0.618756 2.608336 16.243189 9.255615 -58.847308 2.495090 -3.324763 43.769663 -1.151628 -0.688313 -14.770119 0.215700 -0.000000 -31.166000
-0.217490 16.060230 -0.490069 -45.588501 86.091763 -15.329133 -13.270339 4.026483 -3.926604 -2.779020 11.803508 -16.189882 2.487435 4.968941 82.966562 3.546286 23.617148 -1.479458 2.399100 -0.000000 -27.356500 7.775387 -0.596332 2.500963 16.458749 9.324303 -58.709639 2.327333 -3.549610 47.132966 -1.361004 -0.750929 -17.843831 0.466599 0.000000 -29.380800
0.059768 15.965740 -0.472706 -45.909357 85.797725 -15.970037 -13.411488 3.967233 -3.983979 -2.272888 12.053418 -17.331167 2.835951 5.210548 86.118350 3.548810 23.476981 -1.740078 2.288300 -0.000000 -26.910400 7.820898 -0.609379 2.378550 16.811590 9.345045 -58.333149 2.203867 -3.737546 49.995973 -1.522002 -0.725864 -20.442004 0.678100 -0.000000 -28.696900
0.330067 15.888705 -0.457504 -46.450452 85.403824 -16.827704 -13.545987 3.864547 -4.063159 -1.728576 12.302034 -18.594155 3.193340 5.449763 89.103170 3.540476 23.248374 -1.995775 2.173900 -0.000001 -26.355601 7.865532 -0.653850 2.242600 17.287317 9.308991 -57.695851 2.124431 -3.883249 52.291039 -1.635168 -0.621012 -22.545033 0.835900 -0.000001 -29.027400
0.594059 15.830097 -0.444099 -46.922063 84.913135 -17.610579 -13.664859 3.725287 -4.154198 -1.179431 12.530721 -19.977541 3.552289 5.684629 91.882339 3.523342 22.953427 -2.245798 2.059400 -0.000000 -25.722100 7.909892 -0.721688 2.094613 17.853985 9.202103 -56.791633 2.087632 -3.983053 53.988831 -1.704701 -0.446698 -24.174433 0.936400 0.000000 -30.144800
0.852658 15.790130 -0.431820 -47.088139 84.343361 -18.082650 -13.758955 3.557988 -4.244378 -0.668885 12.716169 -21.474914 3.903705 5.910517 94.416908 3.499745 22.617189 -2.491325 1.946999 0.000000 -25.034500 7.956615 -0.802117 1.936631 18.462998 9.007396 -55.630363 2.090715 -4.034866 55.093484 -1.737447 -0.216616 -25.382283 0.984000 -0.000000 -31.741101
1.106975 15.768335 -0.419856 -46.812407 83.722440 -18.108384 -13.821173 3.371368 -4.320508 -0.240707 12.835103 -23.076229 4.236667 6.120797 96.669319 3.471855 22.263203 -2.733003 1.838500 0.000001 -24.347300 8.008630 -0.884402 1.770996 19.058802 8.711163 -54.234277 2.129229 -4.038266 55.637310 -1.741787 0.051944 -26.237721 0.988900 -0.000000 -33.483800
